<svg id="figure-5-evaluation-dashboard" width="100%" xmlns="http://www.w3.org/2000/svg" viewBox="0 0 1200 700" role="img" aria-labelledby="title desc" style="max-width: 1200px; background-color: #ffffff;">
  <title id="title">Figure 5 — Historical Evaluation &amp; Regression Tracking</title>
  <desc id="desc">A four-part architectural process diagram showing evaluation runs accumulating over time, historical metrics trending, regression detection against a baseline, and versioned artifacts surfaced in a control center.</desc>
  <defs>
    <marker id="arrow" viewBox="0 0 10 10" refX="9" refY="5" markerWidth="8" markerHeight="8" orient="auto-start-reverse">
      <path d="M 0 0 L 10 5 L 0 10 z" fill="#555555"/>
    </marker>
    <style>
      #figure-5-evaluation-dashboard {
        font-family: Inter, ui-sans-serif, system-ui, -apple-system, BlinkMacSystemFont, "Segoe UI", sans-serif;
        color: #111111;
      }
      .title {
        fill: #111111;
        font-size: 24px;
        font-weight: 650;
        text-anchor: middle;
      }
      .section {
        fill: #ffffff;
        stroke: #4b5563;
        stroke-width: 1.2;
      }
      .section-title {
        fill: #111111;
        font-size: 17px;
        font-weight: 650;
        text-anchor: middle;
      }
      .label {
        fill: #111111;
        font-size: 14px;
      }
      .small-label {
        fill: #374151;
        font-size: 12px;
      }
      .muted {
        fill: #6b7280;
        font-size: 12px;
      }
      .caption {
        fill: #374151;
        font-size: 15px;
        font-style: italic;
        text-anchor: middle;
      }
      .arrow-line {
        fill: none;
        stroke: #555555;
        stroke-width: 1.4;
        marker-end: url(#arrow);
      }
      .blue-stroke {
        stroke: #2f6fbd;
      }
      .blue-fill {
        fill: #eef5ff;
      }
      .green {
        fill: #2f8f4e;
      }
      .green-stroke {
        stroke: #2f8f4e;
      }
      .orange {
        fill: #d9822b;
      }
      .orange-stroke {
        stroke: #d9822b;
      }
      .gray-fill {
        fill: #f3f4f6;
      }
      .artifact-fill {
        fill: #f7f7f7;
      }
      .thin {
        fill: none;
        stroke: #555555;
        stroke-width: 1.1;
      }
      .grid {
        fill: none;
        stroke: #e5e7eb;
        stroke-width: 1;
      }
    </style>
  </defs>

  <rect x="0" y="0" width="1200" height="700" fill="#ffffff"/>
  <text class="title" x="600" y="48">Figure 5 — Historical Evaluation &amp; Regression Tracking</text>

  <rect class="section" x="40" y="95" width="210" height="500" rx="12"/>
  <path class="blue-stroke" d="M 58 134 H 232" fill="none" stroke-width="2"/>
  <text class="section-title" x="145" y="124">Evaluation Runs</text>

  <line x1="104" y1="185" x2="104" y2="460" stroke="#d1d5db" stroke-width="2"/>
  <g>
    <circle cx="104" cy="190" r="15" fill="#ffffff" stroke="#2f8f4e" stroke-width="1.4"/>
    <text x="104" y="195" text-anchor="middle" font-size="14" font-weight="700" fill="#2f8f4e">✓</text>
    <rect x="132" y="171" width="78" height="38" rx="8" fill="#ffffff" stroke="#4b5563" stroke-width="1.1"/>
    <text class="label" x="171" y="195" text-anchor="middle">Run 18</text>
  </g>
  <g>
    <circle cx="104" cy="270" r="15" fill="#ffffff" stroke="#2f8f4e" stroke-width="1.4"/>
    <text x="104" y="275" text-anchor="middle" font-size="14" font-weight="700" fill="#2f8f4e">✓</text>
    <rect x="132" y="251" width="78" height="38" rx="8" fill="#ffffff" stroke="#4b5563" stroke-width="1.1"/>
    <text class="label" x="171" y="275" text-anchor="middle">Run 19</text>
  </g>
  <g>
    <circle cx="104" cy="350" r="15" fill="#ffffff" stroke="#2f8f4e" stroke-width="1.4"/>
    <text x="104" y="355" text-anchor="middle" font-size="14" font-weight="700" fill="#2f8f4e">✓</text>
    <rect x="132" y="331" width="78" height="38" rx="8" fill="#ffffff" stroke="#4b5563" stroke-width="1.1"/>
    <text class="label" x="171" y="355" text-anchor="middle">Run 20</text>
  </g>
  <g>
    <circle cx="104" cy="430" r="15" fill="#ffffff" stroke="#2f8f4e" stroke-width="1.4"/>
    <text x="104" y="435" text-anchor="middle" font-size="14" font-weight="700" fill="#2f8f4e">✓</text>
    <rect x="132" y="411" width="92" height="38" rx="8" fill="#eef5ff" stroke="#2f6fbd" stroke-width="1.1"/>
    <text class="label" x="178" y="435" text-anchor="middle">Run 21</text>
    <text class="muted" x="178" y="466" text-anchor="middle">Latest</text>
  </g>

  <path class="arrow-line" d="M 260 345 H 286"/>

  <rect class="section" x="300" y="95" width="300" height="500" rx="12"/>
  <path class="blue-stroke" d="M 318 134 H 582" fill="none" stroke-width="2"/>
  <text class="section-title" x="450" y="124">Historical Metrics</text>

  <g transform="translate(330 165)">
    <text class="label" x="0" y="0">Pass Rate %</text>
    <rect x="0" y="18" width="240" height="92" rx="8" fill="#ffffff" stroke="#4b5563" stroke-width="1.1"/>
    <path class="grid" d="M 24 42 H 220 M 24 70 H 220 M 24 98 H 220"/>
    <path class="thin" d="M 24 34 V 98 H 220"/>
    <path d="M 42 70 L 92 62 L 142 44 L 192 53" fill="none" stroke="#2f6fbd" stroke-width="2.2" stroke-linecap="round" stroke-linejoin="round"/>
    <g fill="#2f6fbd">
      <circle cx="42" cy="70" r="3.4"/>
      <circle cx="92" cy="62" r="3.4"/>
      <circle cx="142" cy="44" r="3.4"/>
      <circle cx="192" cy="53" r="3.4"/>
    </g>
    <text class="small-label" x="42" y="121" text-anchor="middle">95</text>
    <text class="small-label" x="92" y="121" text-anchor="middle">96</text>
    <text class="small-label" x="142" y="121" text-anchor="middle">98</text>
    <text class="small-label" x="192" y="121" text-anchor="middle">97</text>
  </g>

  <g transform="translate(330 315)">
    <text class="label" x="0" y="0">Retrieval Recall@5</text>
    <rect x="0" y="18" width="240" height="92" rx="8" fill="#ffffff" stroke="#4b5563" stroke-width="1.1"/>
    <path class="grid" d="M 24 42 H 220 M 24 70 H 220 M 24 98 H 220"/>
    <path class="thin" d="M 24 34 V 98 H 220"/>
    <path d="M 42 82 L 92 70 L 142 46 L 192 52" fill="none" stroke="#2f6fbd" stroke-width="2.2" stroke-linecap="round" stroke-linejoin="round"/>
    <g fill="#2f6fbd">
      <circle cx="42" cy="82" r="3.4"/>
      <circle cx="92" cy="70" r="3.4"/>
      <circle cx="142" cy="46" r="3.4"/>
      <circle cx="192" cy="52" r="3.4"/>
    </g>
    <text class="small-label" x="42" y="121" text-anchor="middle">0.82</text>
    <text class="small-label" x="92" y="121" text-anchor="middle">0.84</text>
    <text class="small-label" x="142" y="121" text-anchor="middle">0.88</text>
    <text class="small-label" x="192" y="121" text-anchor="middle">0.87</text>
  </g>

  <g transform="translate(330 465)">
    <text class="label" x="0" y="0">Grounded Responses %</text>
    <rect x="0" y="18" width="240" height="92" rx="8" fill="#ffffff" stroke="#4b5563" stroke-width="1.1"/>
    <path class="grid" d="M 24 42 H 220 M 24 70 H 220 M 24 98 H 220"/>
    <path class="thin" d="M 24 34 V 98 H 220"/>
    <path d="M 42 82 L 92 65 L 142 48 L 192 48" fill="none" stroke="#2f6fbd" stroke-width="2.2" stroke-linecap="round" stroke-linejoin="round"/>
    <g fill="#2f6fbd">
      <circle cx="42" cy="82" r="3.4"/>
      <circle cx="92" cy="65" r="3.4"/>
      <circle cx="142" cy="48" r="3.4"/>
      <circle cx="192" cy="48" r="3.4"/>
    </g>
    <text class="small-label" x="42" y="121" text-anchor="middle">91</text>
    <text class="small-label" x="92" y="121" text-anchor="middle">93</text>
    <text class="small-label" x="142" y="121" text-anchor="middle">95</text>
    <text class="small-label" x="192" y="121" text-anchor="middle">95</text>
  </g>

  <path class="arrow-line" d="M 610 345 H 636"/>

  <rect class="section" x="650" y="95" width="245" height="500" rx="12"/>
  <path class="blue-stroke" d="M 668 134 H 877" fill="none" stroke-width="2"/>
  <text class="section-title" x="772.5" y="124">Baseline Comparison</text>

  <rect x="688" y="175" width="154" height="52" rx="8" fill="#f7f7f7" stroke="#4b5563" stroke-width="1.1"/>
  <text class="label" x="765" y="207" text-anchor="middle">Committed Baseline</text>
  <path class="arrow-line" d="M 765 238 V 290"/>
  <rect x="688" y="302" width="154" height="52" rx="8" fill="#eef5ff" stroke="#2f6fbd" stroke-width="1.1"/>
  <text class="label" x="765" y="334" text-anchor="middle">Current Evaluation</text>

  <g transform="translate(682 405)">
    <text class="green" x="0" y="0" font-size="16" font-weight="700">✓</text>
    <text class="label" x="24" y="0">Pass Rate +1.2%</text>
    <text class="green" x="0" y="42" font-size="16" font-weight="700">✓</text>
    <text class="label" x="24" y="42">Recall@5 +0.03</text>
    <text class="orange" x="0" y="84" font-size="16" font-weight="700">⚠</text>
    <text class="label" x="24" y="84">Citation Accuracy -0.8%</text>
  </g>

  <path class="arrow-line" d="M 905 345 H 931"/>

  <rect class="section" x="945" y="95" width="215" height="500" rx="12"/>
  <path class="blue-stroke" d="M 963 134 H 1142" fill="none" stroke-width="2"/>
  <text class="section-title" x="1052.5" y="124">Versioned Artifacts</text>

  <g transform="translate(982 164)">
    <g>
      <path class="artifact-fill" d="M 0 0 H 118 L 140 22 V 58 H 0 Z" stroke="#4b5563" stroke-width="1.1" fill="#f7f7f7"/>
      <path d="M 118 0 V 22 H 140" fill="none" stroke="#4b5563" stroke-width="1.1"/>
      <text class="small-label" x="70" y="36" text-anchor="middle">evaluation-report.md</text>
    </g>
    <g transform="translate(12 76)">
      <path class="artifact-fill" d="M 0 0 H 118 L 140 22 V 58 H 0 Z" stroke="#4b5563" stroke-width="1.1" fill="#f7f7f7"/>
      <path d="M 118 0 V 22 H 140" fill="none" stroke="#4b5563" stroke-width="1.1"/>
      <text class="small-label" x="70" y="36" text-anchor="middle">evaluation-report.json</text>
    </g>
    <g transform="translate(24 152)">
      <path class="artifact-fill" d="M 0 0 H 118 L 140 22 V 58 H 0 Z" stroke="#4b5563" stroke-width="1.1" fill="#f7f7f7"/>
      <path d="M 118 0 V 22 H 140" fill="none" stroke="#4b5563" stroke-width="1.1"/>
      <text class="small-label" x="70" y="36" text-anchor="middle">evaluation_runs table</text>
    </g>
  </g>

  <g transform="translate(976 400)">
    <rect x="0" y="0" width="153" height="152" rx="10" fill="#ffffff" stroke="#4b5563" stroke-width="1.1"/>
    <text class="label" x="76.5" y="28" text-anchor="middle" font-weight="650">Control Center</text>
    <line x1="18" y1="42" x2="135" y2="42" stroke="#d1d5db" stroke-width="1"/>
    <text class="small-label" x="18" y="66">Latest Score</text>
    <circle cx="130" cy="62" r="4" fill="#2f8f4e"/>
    <text class="small-label" x="18" y="91">Prompt Version</text>
    <rect x="116" y="81" width="18" height="14" rx="3" fill="#eef5ff" stroke="#2f6fbd" stroke-width="1"/>
    <text class="small-label" x="18" y="116">Model Version</text>
    <rect x="116" y="106" width="18" height="14" rx="3" fill="#f3f4f6" stroke="#6b7280" stroke-width="1"/>
    <text class="small-label" x="18" y="141">Regression Status</text>
    <circle cx="130" cy="137" r="4" fill="#d9822b"/>
  </g>

  <text class="caption" x="600" y="666">"Every evaluation is versioned, compared against a committed baseline, and tracked historically to identify regressions over time."</text>
</svg>
